<?xml version="1.0" encoding="utf-8"?>
<!-- Generator: Adobe Illustrator 27.0.0, SVG Export Plug-In . SVG Version: 6.00 Build 0)  -->
<svg version="1.1" id="Capa_1" xmlns="http://www.w3.org/2000/svg" xmlns:xlink="http://www.w3.org/1999/xlink" x="0px" y="0px"
	 viewBox="0 0 56.7 32" style="enable-background:new 0 0 56.7 32;" xml:space="preserve">
<style type="text/css">
	.st0{fill:#2A3342;}
</style>
<path class="st0" d="M14.3,6.7v3.6H6.8v3.9h5.6v3.5H6.8v7.4H2.4V6.7H14.3z"/>
<path class="st0" d="M21.1,5.7v19.4h-4.5V5.7H21.1z"/>
<path class="st0" d="M38.2,17.6c0,0.4,0,0.9-0.1,1.3H28c0.1,0.9,0.4,1.6,0.9,2.1c0.5,0.5,1.2,0.7,1.9,0.7c1.1,0,1.9-0.5,2.3-1.4h4.8
	c-0.2,1-0.7,1.8-1.3,2.6c-0.6,0.8-1.4,1.4-2.4,1.8c-1,0.4-2,0.7-3.2,0.7c-1.4,0-2.7-0.3-3.8-0.9c-1.1-0.6-2-1.5-2.6-2.6
	c-0.6-1.1-0.9-2.5-0.9-4c0-1.5,0.3-2.8,0.9-4c0.6-1.1,1.5-2,2.6-2.6c1.1-0.6,2.4-0.9,3.8-0.9c1.4,0,2.7,0.3,3.8,0.9
	c1.1,0.6,2,1.4,2.6,2.5C37.8,14.8,38.2,16.1,38.2,17.6z M33.6,16.4c0-0.8-0.3-1.4-0.8-1.8c-0.5-0.5-1.2-0.7-2-0.7
	c-0.8,0-1.4,0.2-1.9,0.7c-0.5,0.4-0.8,1.1-0.9,1.9H33.6z"/>
<path class="st0" d="M49.2,25.1L46.4,21L44,25.1h-4.8l4.8-7.5L39,10.5h5l2.8,4l2.4-4h4.8l-4.9,7.4l5,7.3H49.2z"/>
</svg>
